<?xml version="1.0" encoding="UTF-8" standalone="no"?>
<!DOCTYPE svg PUBLIC "-//W3C//DTD SVG 1.1//EN" "http://www.w3.org/Graphics/SVG/1.1/DTD/svg11.dtd">
<svg width="100%" height="100%" viewBox="0 0 1273 1724" version="1.1" xmlns="http://www.w3.org/2000/svg" xmlns:xlink="http://www.w3.org/1999/xlink" xml:space="preserve" xmlns:serif="http://www.serif.com/" style="fill-rule:evenodd;clip-rule:evenodd;stroke-linejoin:round;stroke-miterlimit:2;">
    <g id="ArtBoard1" transform="matrix(0.996946,0,0,0.97938,-1272.88,-200.888)">
        <rect x="1276.78" y="205.117" width="1276.32" height="1759.5" style="fill:none;"/>
        <g transform="matrix(1.00306,0,0,1.02105,-249.476,-30.1508)">
            <path d="M1524.01,980.973L1524.01,321.278C1524.01,276.175 1573.58,239.557 1634.64,239.557L1639.08,239.557L1639.08,239.52C1639.83,239.527 1640.57,239.539 1641.32,239.557L1642.44,239.557L1642.44,239.587C1669.19,240.418 1695.6,248.401 1716,263.536L2751.65,1031.87C2794.82,1063.9 2794.82,1115.91 2751.65,1147.94L2621.34,1244.61L2006.84,781.286C1958.95,745.179 1890.76,754.744 1854.65,802.632C1818.55,850.52 1828.11,918.714 1876,954.821L2439.38,1379.6L1703.99,1925.18C1686.75,1937.98 1665.21,1945.66 1642.81,1948.23L1642.81,1948.55L1639.83,1948.55C1639.58,1948.57 1639.33,1948.59 1639.08,1948.61L1639.08,1948.55L1635,1948.55C1573.95,1948.55 1524.38,1911.93 1524.38,1866.82L1524.38,1422.45C1524.14,1420.25 1524.01,1418.03 1524.01,1415.79L1524.01,1253.16L1819.26,1475.78C1867.15,1511.88 1935.35,1502.32 1971.45,1454.43C2007.56,1406.54 1997.99,1338.35 1950.11,1302.24L1524.01,980.973Z" style="fill:rgb(20,20,20);"/>
        </g>
    </g>
</svg>
